  0
SECTION
  2
HEADER
  9
$EXTMIN
 10
92.887800
 20
43.891200
  9
$EXTMAX
 10
221.411800
 20
144.094200
  9
$LIMMIN
 10
92.887800
 20
43.891200
  9
$LIMMAX
 10
221.411800
 20
144.094200
  9
$FILLMODE
 70
  1
  0
ENDSEC
  0
SECTION
  2
TABLES
  0
TABLE
  2
LTYPE
 70
  1
  0
LTYPE
  2
CONTINUOUS
 70
 64
  3
Solid line
 72
 65
 73
  0
 40
0.0
  0
ENDTAB
  0
TABLE
  2
LAYER
 70
 1
  0
LAYER
  2
0
 70
  0
 62
7
  6
CONTINUOUS
  0
LAYER
  2
grb
 70
  0
 62
1
  6
CONTINUOUS
  0
ENDTAB
  0
TABLE
  2
STYLE
 70
  1
  0
STYLE
  2
STANDARD
 70
  0
 40
0.0
 41
1.0
 50
0.0
 71
  0
 42
0.2
  3
txt
  4

  0
ENDTAB
  0
ENDSEC
  0
SECTION
  2
BLOCKS
  0
BLOCK
  8
0
  2
D11
 70
64
 10
0.0
 20
0.0
  3
D11
  0
CIRCLE
  8
0
 10
0.000000
 20
0.000000
 40
0.050000
 0
ENDBLK
  8
0
  0
ENDSEC
  0
SECTION
  2
ENTITIES
  0
POLYLINE
  8
grb
 62
1
 40
0.000000
 41
0.000000
 66
  1
  0
VERTEX
  8
grb
 10
219.800440
 20
54.300109
  0
VERTEX
  8
grb
 10
189.150378
 20
54.300109
  0
VERTEX
  8
grb
 10
189.150378
 20
54.300109
  0
VERTEX
  8
grb
 10
189.150378
 20
54.300109
 42
-0.414214
  0
VERTEX
  8
grb
 10
187.700375
 20
55.750112
  0
VERTEX
  8
grb
 10
187.700375
 20
55.750112
  0
SEQEND
  8
grb
  0
POLYLINE
  8
grb
 62
1
 40
0.000000
 41
0.000000
 66
  1
  0
VERTEX
  8
grb
 10
187.700375
 20
114.900230
  0
VERTEX
  8
grb
 10
187.700375
 20
55.750112
  0
SEQEND
  8
grb
  0
POLYLINE
  8
grb
 62
1
 40
0.000000
 41
0.000000
 66
  1
  0
VERTEX
  8
grb
 10
219.800440
 20
116.350233
  0
VERTEX
  8
grb
 10
189.150378
 20
116.350233
  0
VERTEX
  8
grb
 10
189.150378
 20
116.350233
  0
VERTEX
  8
grb
 10
189.150378
 20
116.350233
 42
0.414214
  0
VERTEX
  8
grb
 10
187.700375
 20
114.900230
  0
VERTEX
  8
grb
 10
187.700375
 20
114.900230
  0
SEQEND
  8
grb
  0
POLYLINE
  8
grb
 62
1
 40
0.000000
 41
0.000000
 66
  1
  0
VERTEX
  8
grb
 10
95.500191
 20
128.950258
  0
VERTEX
  8
grb
 10
97.750196
 20
128.950258
  0
VERTEX
  8
grb
 10
97.750196
 20
128.950258
  0
VERTEX
  8
grb
 10
97.750196
 20
128.950258
 42
-1.000000
  0
VERTEX
  8
grb
 10
97.750196
 20
115.050230
  0
VERTEX
  8
grb
 10
95.500191
 20
115.050230
  0
SEQEND
  8
grb
  0
POLYLINE
  8
grb
 62
1
 40
0.000000
 41
0.000000
 66
  1
  0
VERTEX
  8
grb
 10
172.700345
 20
56.650113
  0
VERTEX
  8
grb
 10
103.400207
 20
56.650113
  0
SEQEND
  8
grb
  0
POLYLINE
  8
grb
 62
1
 40
0.000000
 41
0.000000
 66
  1
  0
VERTEX
  8
grb
 10
172.700345
 20
56.650113
  0
VERTEX
  8
grb
 10
172.700345
 20
56.650113
  0
VERTEX
  8
grb
 10
172.700345
 20
56.650113
 42
-0.414214
  0
VERTEX
  8
grb
 10
174.650349
 20
54.700109
  0
VERTEX
  8
grb
 10
174.650349
 20
45.500091
  0
SEQEND
  8
grb
  0
POLYLINE
  8
grb
 62
1
 40
0.000000
 41
0.000000
 66
  1
  0
VERTEX
  8
grb
 10
103.400207
 20
56.650113
  0
VERTEX
  8
grb
 10
103.400207
 20
56.650113
  0
VERTEX
  8
grb
 10
103.400207
 20
56.650113
 42
0.406853
  0
VERTEX
  8
grb
 10
101.451203
 20
54.750110
  0
VERTEX
  8
grb
 10
101.451203
 20
45.500091
  0
SEQEND
  8
grb
  0
POLYLINE
  8
grb
 62
1
 40
0.000000
 41
0.000000
 66
  1
  0
VERTEX
  8
grb
 10
92.950186
 20
112.500225
  0
VERTEX
  8
grb
 10
92.950186
 20
112.500225
  0
VERTEX
  8
grb
 10
92.950186
 20
112.500225
 42
-0.414214
  0
VERTEX
  8
grb
 10
95.500191
 20
115.050230
  0
VERTEX
  8
grb
 10
95.500191
 20
115.050230
  0
SEQEND
  8
grb
  0
POLYLINE
  8
grb
 62
1
 40
0.000000
 41
0.000000
 66
  1
  0
VERTEX
  8
grb
 10
92.950186
 20
45.500091
  0
VERTEX
  8
grb
 10
92.950186
 20
112.500225
  0
SEQEND
  8
grb
  0
POLYLINE
  8
grb
 62
1
 40
0.000000
 41
0.000000
 66
  1
  0
VERTEX
  8
grb
 10
95.500191
 20
128.950258
  0
VERTEX
  8
grb
 10
95.500191
 20
128.950258
  0
VERTEX
  8
grb
 10
95.500191
 20
128.950258
 42
-0.414214
  0
VERTEX
  8
grb
 10
92.950186
 20
131.500263
  0
VERTEX
  8
grb
 10
92.950186
 20
131.500263
  0
SEQEND
  8
grb
  0
POLYLINE
  8
grb
 62
1
 40
0.000000
 41
0.000000
 66
  1
  0
VERTEX
  8
grb
 10
92.950186
 20
142.500285
  0
VERTEX
  8
grb
 10
92.950186
 20
131.500263
  0
SEQEND
  8
grb
  0
POLYLINE
  8
grb
 62
1
 40
0.000000
 41
0.000000
 66
  1
  0
VERTEX
  8
grb
 10
92.950186
 20
45.500091
  0
VERTEX
  8
grb
 10
92.950186
 20
45.500091
  0
VERTEX
  8
grb
 10
92.950186
 20
45.500091
 42
0.414214
  0
VERTEX
  8
grb
 10
94.500189
 20
43.950088
  0
VERTEX
  8
grb
 10
99.900200
 20
43.950088
  0
VERTEX
  8
grb
 10
99.900200
 20
43.950088
  0
VERTEX
  8
grb
 10
99.900200
 20
43.950088
 42
0.414214
  0
VERTEX
  8
grb
 10
101.450203
 20
45.500091
  0
VERTEX
  8
grb
 10
101.450203
 20
45.500091
  0
SEQEND
  8
grb
  0
POLYLINE
  8
grb
 62
1
 40
0.000000
 41
0.000000
 66
  1
  0
VERTEX
  8
grb
 10
174.650349
 20
45.500091
  0
VERTEX
  8
grb
 10
174.650349
 20
45.500091
  0
VERTEX
  8
grb
 10
174.650349
 20
45.500091
 42
0.414214
  0
VERTEX
  8
grb
 10
176.200352
 20
43.950088
  0
VERTEX
  8
grb
 10
176.200352
 20
43.950088
  0
SEQEND
  8
grb
  0
POLYLINE
  8
grb
 62
1
 40
0.000000
 41
0.000000
 66
  1
  0
VERTEX
  8
grb
 10
219.800440
 20
43.950088
  0
VERTEX
  8
grb
 10
176.200352
 20
43.950088
  0
SEQEND
  8
grb
  0
POLYLINE
  8
grb
 62
1
 40
0.000000
 41
0.000000
 66
  1
  0
VERTEX
  8
grb
 10
221.350443
 20
52.750106
  0
VERTEX
  8
grb
 10
221.350443
 20
45.500091
  0
VERTEX
  8
grb
 10
221.350443
 20
45.500091
  0
VERTEX
  8
grb
 10
221.350443
 20
45.500091
 42
-0.414214
  0
VERTEX
  8
grb
 10
219.800440
 20
43.950088
  0
VERTEX
  8
grb
 10
219.800440
 20
43.950088
  0
SEQEND
  8
grb
  0
POLYLINE
  8
grb
 62
1
 40
0.000000
 41
0.000000
 66
  1
  0
VERTEX
  8
grb
 10
221.350443
 20
52.750106
  0
VERTEX
  8
grb
 10
221.350443
 20
52.750106
  0
VERTEX
  8
grb
 10
221.350443
 20
52.750106
 42
0.414214
  0
VERTEX
  8
grb
 10
219.800440
 20
54.300109
  0
VERTEX
  8
grb
 10
219.800440
 20
54.300109
  0
SEQEND
  8
grb
  0
POLYLINE
  8
grb
 62
1
 40
0.000000
 41
0.000000
 66
  1
  0
VERTEX
  8
grb
 10
219.800440
 20
116.350233
  0
VERTEX
  8
grb
 10
219.800440
 20
116.350233
  0
VERTEX
  8
grb
 10
219.800440
 20
116.350233
 42
0.414214
  0
VERTEX
  8
grb
 10
221.350443
 20
117.900236
  0
VERTEX
  8
grb
 10
221.350443
 20
117.900236
  0
SEQEND
  8
grb
  0
POLYLINE
  8
grb
 62
1
 40
0.000000
 41
0.000000
 66
  1
  0
VERTEX
  8
grb
 10
221.350443
 20
142.500285
  0
VERTEX
  8
grb
 10
221.350443
 20
117.900236
  0
SEQEND
  8
grb
  0
POLYLINE
  8
grb
 62
1
 40
0.000000
 41
0.000000
 66
  1
  0
VERTEX
  8
grb
 10
221.350443
 20
142.500285
  0
VERTEX
  8
grb
 10
221.350443
 20
142.500285
  0
VERTEX
  8
grb
 10
221.350443
 20
142.500285
 42
0.414214
  0
VERTEX
  8
grb
 10
219.800440
 20
144.050288
  0
VERTEX
  8
grb
 10
94.500189
 20
144.050288
  0
VERTEX
  8
grb
 10
94.500189
 20
144.050288
  0
VERTEX
  8
grb
 10
94.500189
 20
144.050288
 42
0.414214
  0
VERTEX
  8
grb
 10
92.950186
 20
142.500285
  0
VERTEX
  8
grb
 10
92.950186
 20
142.500285
  0
SEQEND
  8
grb
  0
POLYLINE
  8
grb
 62
1
 40
0.000000
 41
0.000000
 66
  1
  0
VERTEX
  8
grb
 10
218.650437
 20
139.700279
  0
VERTEX
  8
grb
 10
218.650437
 20
139.700279
  0
VERTEX
  8
grb
 10
218.650437
 20
139.700279
 42
-1.000000
  0
VERTEX
  8
grb
 10
215.650431
 20
139.700279
  0
VERTEX
  8
grb
 10
215.650431
 20
139.700279
  0
SEQEND
  8
grb
  0
POLYLINE
  8
grb
 62
1
 40
0.000000
 41
0.000000
 66
  1
  0
VERTEX
  8
grb
 10
215.650431
 20
139.700279
  0
VERTEX
  8
grb
 10
215.650431
 20
139.700279
 42
-1.000000
  0
VERTEX
  8
grb
 10
218.650437
 20
139.700279
  0
VERTEX
  8
grb
 10
218.650437
 20
139.700279
  0
SEQEND
  8
grb
  0
POLYLINE
  8
grb
 62
1
 40
0.000000
 41
0.000000
 66
  1
  0
VERTEX
  8
grb
 10
98.650197
 20
139.700279
  0
VERTEX
  8
grb
 10
98.650197
 20
139.700279
  0
VERTEX
  8
grb
 10
98.650197
 20
139.700279
 42
-1.000000
  0
VERTEX
  8
grb
 10
95.650191
 20
139.700279
  0
VERTEX
  8
grb
 10
95.650191
 20
139.700279
  0
SEQEND
  8
grb
  0
POLYLINE
  8
grb
 62
1
 40
0.000000
 41
0.000000
 66
  1
  0
VERTEX
  8
grb
 10
95.650191
 20
139.700279
  0
VERTEX
  8
grb
 10
95.650191
 20
139.700279
 42
-1.000000
  0
VERTEX
  8
grb
 10
98.650197
 20
139.700279
  0
VERTEX
  8
grb
 10
98.650197
 20
139.700279
  0
SEQEND
  8
grb
  0
POLYLINE
  8
grb
 62
1
 40
0.000000
 41
0.000000
 66
  1
  0
VERTEX
  8
grb
 10
218.650437
 20
48.300097
  0
VERTEX
  8
grb
 10
218.650437
 20
48.300097
  0
VERTEX
  8
grb
 10
218.650437
 20
48.300097
 42
-1.000000
  0
VERTEX
  8
grb
 10
215.650431
 20
48.300097
  0
VERTEX
  8
grb
 10
215.650431
 20
48.300097
  0
SEQEND
  8
grb
  0
POLYLINE
  8
grb
 62
1
 40
0.000000
 41
0.000000
 66
  1
  0
VERTEX
  8
grb
 10
215.650431
 20
48.300097
  0
VERTEX
  8
grb
 10
215.650431
 20
48.300097
 42
-1.000000
  0
VERTEX
  8
grb
 10
218.650437
 20
48.300097
  0
VERTEX
  8
grb
 10
218.650437
 20
48.300097
  0
SEQEND
  8
grb
  0
POLYLINE
  8
grb
 62
1
 40
0.000000
 41
0.000000
 66
  1
  0
VERTEX
  8
grb
 10
98.650197
 20
48.300097
  0
VERTEX
  8
grb
 10
98.650197
 20
48.300097
  0
VERTEX
  8
grb
 10
98.650197
 20
48.300097
 42
-1.000000
  0
VERTEX
  8
grb
 10
95.650191
 20
48.300097
  0
VERTEX
  8
grb
 10
95.650191
 20
48.300097
  0
SEQEND
  8
grb
  0
POLYLINE
  8
grb
 62
1
 40
0.000000
 41
0.000000
 66
  1
  0
VERTEX
  8
grb
 10
95.650191
 20
48.300097
  0
VERTEX
  8
grb
 10
95.650191
 20
48.300097
 42
-1.000000
  0
VERTEX
  8
grb
 10
98.650197
 20
48.300097
  0
VERTEX
  8
grb
 10
98.650197
 20
48.300097
  0
SEQEND
  8
grb
  0
ENDSEC
  0
EOF
